<svg xmlns="http://www.w3.org/2000/svg" xmlns:xlink="http://www.w3.org/1999/xlink" width="50" zoomAndPan="magnify" viewBox="0 0 37.5 37.499999" height="50" preserveAspectRatio="xMidYMid meet" version="1.0"><defs><clipPath id="ba66f9fe76"><path d="M 13 0 L 24 0 L 24 10.5 L 13 10.5 Z M 13 0 " clip-rule="nonzero"/></clipPath><clipPath id="eecf386194"><path d="M 27 0 L 37.007812 0 L 37.007812 10.5 L 27 10.5 Z M 27 0 " clip-rule="nonzero"/></clipPath><clipPath id="23c3ad7165"><path d="M 0 0 L 11 0 L 11 10.5 L 0 10.5 Z M 0 0 " clip-rule="nonzero"/></clipPath><clipPath id="c1adb4f77f"><path d="M 13 13.640625 L 24 13.640625 L 24 24.140625 L 13 24.140625 Z M 13 13.640625 " clip-rule="nonzero"/></clipPath><clipPath id="b2f1a278c6"><path d="M 27 13.640625 L 37.007812 13.640625 L 37.007812 24.140625 L 27 24.140625 Z M 27 13.640625 " clip-rule="nonzero"/></clipPath><clipPath id="53e0876d41"><path d="M 0 13.640625 L 11 13.640625 L 11 24.140625 L 0 24.140625 Z M 0 13.640625 " clip-rule="nonzero"/></clipPath><clipPath id="beb8ccd9a8"><path d="M 13 27.28125 L 24 27.28125 L 24 37.007812 L 13 37.007812 Z M 13 27.28125 " clip-rule="nonzero"/></clipPath><clipPath id="49c00ee990"><path d="M 27 27.28125 L 37.007812 27.28125 L 37.007812 37.007812 L 27 37.007812 Z M 27 27.28125 " clip-rule="nonzero"/></clipPath><clipPath id="2d516307f9"><path d="M 0 27.28125 L 11 27.28125 L 11 37.007812 L 0 37.007812 Z M 0 27.28125 " clip-rule="nonzero"/></clipPath></defs><g clip-path="url(#ba66f9fe76)"><path fill="#000000" d="M 18.75 10.5 C 15.933594 10.5 13.640625 8.144531 13.640625 5.25 C 13.640625 2.355469 15.933594 0 18.75 0 C 21.566406 0 23.859375 2.355469 23.859375 5.25 C 23.859375 8.144531 21.566406 10.5 18.75 10.5 Z M 18.75 10.5 " fill-opacity="1" fill-rule="nonzero"/></g><g clip-path="url(#eecf386194)"><path fill="#000000" d="M 32.375 10.5 C 29.558594 10.5 27.265625 8.144531 27.265625 5.25 C 27.265625 2.355469 29.558594 0 32.375 0 C 35.191406 0 37.484375 2.355469 37.484375 5.25 C 37.484375 8.144531 35.191406 10.5 32.375 10.5 Z M 32.375 10.5 " fill-opacity="1" fill-rule="nonzero"/></g><g clip-path="url(#23c3ad7165)"><path fill="#000000" d="M 5.125 10.5 C 2.308594 10.5 0.015625 8.144531 0.015625 5.25 C 0.015625 2.355469 2.308594 0 5.125 0 C 7.941406 0 10.234375 2.355469 10.234375 5.25 C 10.234375 8.144531 7.941406 10.5 5.125 10.5 Z M 5.125 10.5 " fill-opacity="1" fill-rule="nonzero"/></g><g clip-path="url(#c1adb4f77f)"><path fill="#000000" d="M 18.75 24.140625 C 15.933594 24.140625 13.640625 21.785156 13.640625 18.890625 C 13.640625 15.996094 15.933594 13.640625 18.75 13.640625 C 21.566406 13.640625 23.859375 15.996094 23.859375 18.890625 C 23.859375 21.785156 21.566406 24.140625 18.75 24.140625 Z M 18.75 24.140625 " fill-opacity="1" fill-rule="nonzero"/></g><g clip-path="url(#b2f1a278c6)"><path fill="#000000" d="M 32.375 24.140625 C 29.558594 24.140625 27.265625 21.785156 27.265625 18.890625 C 27.265625 15.996094 29.558594 13.640625 32.375 13.640625 C 35.191406 13.640625 37.484375 15.996094 37.484375 18.890625 C 37.484375 21.785156 35.191406 24.140625 32.375 24.140625 Z M 32.375 24.140625 " fill-opacity="1" fill-rule="nonzero"/></g><g clip-path="url(#53e0876d41)"><path fill="#000000" d="M 5.125 24.140625 C 2.308594 24.140625 0.015625 21.785156 0.015625 18.890625 C 0.015625 15.996094 2.308594 13.640625 5.125 13.640625 C 7.941406 13.640625 10.234375 15.996094 10.234375 18.890625 C 10.234375 21.785156 7.941406 24.140625 5.125 24.140625 Z M 5.125 24.140625 " fill-opacity="1" fill-rule="nonzero"/></g><g clip-path="url(#beb8ccd9a8)"><path fill="#000000" d="M 18.75 37.78125 C 15.933594 37.78125 13.640625 35.425781 13.640625 32.53125 C 13.640625 29.636719 15.933594 27.28125 18.75 27.28125 C 21.566406 27.28125 23.859375 29.636719 23.859375 32.53125 C 23.859375 35.425781 21.566406 37.78125 18.75 37.78125 Z M 18.75 37.78125 " fill-opacity="1" fill-rule="nonzero"/></g><g clip-path="url(#49c00ee990)"><path fill="#000000" d="M 32.375 37.78125 C 29.558594 37.78125 27.265625 35.425781 27.265625 32.53125 C 27.265625 29.636719 29.558594 27.28125 32.375 27.28125 C 35.191406 27.28125 37.484375 29.636719 37.484375 32.53125 C 37.484375 35.425781 35.191406 37.78125 32.375 37.78125 Z M 32.375 37.78125 " fill-opacity="1" fill-rule="nonzero"/></g><g clip-path="url(#2d516307f9)"><path fill="#000000" d="M 5.125 37.78125 C 2.308594 37.78125 0.015625 35.425781 0.015625 32.53125 C 0.015625 29.636719 2.308594 27.28125 5.125 27.28125 C 7.941406 27.28125 10.234375 29.636719 10.234375 32.53125 C 10.234375 35.425781 7.941406 37.78125 5.125 37.78125 Z M 5.125 37.78125 " fill-opacity="1" fill-rule="nonzero"/></g></svg>