<svg xmlns="http://www.w3.org/2000/svg" xmlns:xlink="http://www.w3.org/1999/xlink" width="50" zoomAndPan="magnify" viewBox="0 0 37.5 37.499999" height="50" preserveAspectRatio="xMidYMid meet" version="1.0"><defs><clipPath id="a209a43ea2"><path d="M 0 2 L 37.007812 2 L 37.007812 36.960938 L 0 36.960938 Z M 0 2 " clip-rule="nonzero"/></clipPath><clipPath id="48d2d3ad58"><path d="M 6 0.210938 L 11 0.210938 L 11 8 L 6 8 Z M 6 0.210938 " clip-rule="nonzero"/></clipPath><clipPath id="9820535a0f"><path d="M 27 0.210938 L 31 0.210938 L 31 8 L 27 8 Z M 27 0.210938 " clip-rule="nonzero"/></clipPath></defs><g clip-path="url(#a209a43ea2)"><path fill="#807f85" d="M 33.699219 2.96875 L 31.371094 2.96875 L 31.371094 6.097656 C 31.371094 7.578125 30.167969 8.730469 28.714844 8.730469 L 28.550781 8.730469 C 27.054688 8.730469 25.890625 7.535156 25.890625 6.097656 L 25.890625 2.96875 L 11.359375 2.96875 L 11.359375 6.097656 C 11.359375 7.578125 10.15625 8.730469 8.703125 8.730469 L 8.535156 8.730469 C 7.042969 8.730469 5.878906 7.535156 5.878906 6.097656 L 5.878906 2.96875 L 3.800781 2.96875 C 1.726562 2.96875 0.0664062 4.613281 0.0664062 6.671875 L 0.0664062 33.257812 C 0.0664062 35.316406 1.726562 36.960938 3.800781 36.960938 L 28.339844 36.960938 L 30.085938 36.917969 C 30.292969 36.835938 30.5 36.753906 30.667969 36.589844 L 36.6875 30.253906 C 36.769531 30.171875 36.8125 30.089844 36.894531 30.007812 C 37.226562 29.59375 37.394531 29.101562 37.394531 28.605469 L 37.394531 6.671875 C 37.433594 4.613281 35.773438 2.96875 33.699219 2.96875 Z M 30.042969 33.421875 L 30.042969 30.210938 C 30.042969 29.59375 30.542969 29.140625 31.125 29.140625 L 34.152344 29.140625 Z M 34.777344 26.507812 L 31.125 26.507812 C 29.046875 26.507812 27.386719 28.152344 27.386719 30.210938 L 27.386719 34.367188 L 3.800781 34.367188 C 3.179688 34.367188 2.722656 33.875 2.722656 33.296875 L 2.722656 12.515625 L 34.820312 12.515625 L 34.820312 26.507812 Z M 34.777344 26.507812 " fill-opacity="1" fill-rule="nonzero"/></g><g clip-path="url(#48d2d3ad58)"><path fill="#807f85" d="M 8.660156 7.578125 C 9.492188 7.578125 10.195312 6.878906 10.195312 6.054688 L 10.195312 1.734375 C 10.195312 0.910156 9.492188 0.210938 8.660156 0.210938 L 8.496094 0.210938 C 7.664062 0.210938 6.957031 0.910156 6.957031 1.734375 L 6.957031 6.097656 C 6.957031 6.917969 7.664062 7.617188 8.496094 7.617188 L 8.660156 7.617188 Z M 8.660156 7.578125 " fill-opacity="1" fill-rule="nonzero"/></g><g clip-path="url(#9820535a0f)"><path fill="#807f85" d="M 28.714844 7.578125 C 29.546875 7.578125 30.25 6.878906 30.25 6.054688 L 30.25 1.734375 C 30.25 0.910156 29.546875 0.210938 28.714844 0.210938 L 28.550781 0.210938 C 27.71875 0.210938 27.011719 0.910156 27.011719 1.734375 L 27.011719 6.097656 C 27.011719 6.917969 27.71875 7.617188 28.550781 7.617188 L 28.714844 7.617188 Z M 28.714844 7.578125 " fill-opacity="1" fill-rule="nonzero"/></g><path fill="#807f85" d="M 6.792969 16.136719 L 9.863281 16.136719 L 9.863281 19.183594 L 6.792969 19.183594 Z M 6.792969 16.136719 " fill-opacity="1" fill-rule="nonzero"/><path fill="#807f85" d="M 13.765625 16.136719 L 16.839844 16.136719 L 16.839844 19.183594 L 13.765625 19.183594 Z M 13.765625 16.136719 " fill-opacity="1" fill-rule="nonzero"/><path fill="#807f85" d="M 20.742188 16.136719 L 23.816406 16.136719 L 23.816406 19.183594 L 20.742188 19.183594 Z M 20.742188 16.136719 " fill-opacity="1" fill-rule="nonzero"/><path fill="#807f85" d="M 27.675781 16.136719 L 30.75 16.136719 L 30.75 19.183594 L 27.675781 19.183594 Z M 27.675781 16.136719 " fill-opacity="1" fill-rule="nonzero"/><path fill="#807f85" d="M 6.792969 21.980469 L 9.863281 21.980469 L 9.863281 25.027344 L 6.792969 25.027344 Z M 6.792969 21.980469 " fill-opacity="1" fill-rule="nonzero"/><path fill="#807f85" d="M 13.765625 21.980469 L 16.839844 21.980469 L 16.839844 25.027344 L 13.765625 25.027344 Z M 13.765625 21.980469 " fill-opacity="1" fill-rule="nonzero"/><path fill="#807f85" d="M 20.742188 21.980469 L 23.816406 21.980469 L 23.816406 25.027344 L 20.742188 25.027344 Z M 20.742188 21.980469 " fill-opacity="1" fill-rule="nonzero"/><path fill="#807f85" d="M 27.675781 21.980469 L 30.75 21.980469 L 30.75 25.027344 L 27.675781 25.027344 Z M 27.675781 21.980469 " fill-opacity="1" fill-rule="nonzero"/><path fill="#807f85" d="M 6.792969 27.867188 L 9.863281 27.867188 L 9.863281 30.910156 L 6.792969 30.910156 Z M 6.792969 27.867188 " fill-opacity="1" fill-rule="nonzero"/><path fill="#807f85" d="M 13.765625 27.867188 L 16.839844 27.867188 L 16.839844 30.910156 L 13.765625 30.910156 Z M 13.765625 27.867188 " fill-opacity="1" fill-rule="nonzero"/><path fill="#807f85" d="M 20.742188 27.867188 L 23.816406 27.867188 L 23.816406 30.910156 L 20.742188 30.910156 Z M 20.742188 27.867188 " fill-opacity="1" fill-rule="nonzero"/></svg>