<svg xmlns="http://www.w3.org/2000/svg" xmlns:xlink="http://www.w3.org/1999/xlink" width="50" zoomAndPan="magnify" viewBox="0 0 37.5 37.499999" height="50" preserveAspectRatio="xMidYMid meet" version="1.0"><defs><clipPath id="55bb330d97"><path d="M 0 3.265625 L 37.007812 3.265625 L 37.007812 34.015625 L 0 34.015625 Z M 0 3.265625 " clip-rule="nonzero"/></clipPath></defs><g clip-path="url(#55bb330d97)"><path fill="#000000" d="M 33.832031 34.015625 L 3.664062 34.015625 C 1.644531 34.015625 0.00390625 32.382812 0.00390625 30.378906 L 0.00390625 6.902344 C 0.00390625 4.898438 1.644531 3.265625 3.664062 3.265625 L 9.597656 3.265625 C 11.085938 3.265625 12.414062 4.148438 12.984375 5.515625 L 13.761719 7.390625 L 33.832031 7.390625 C 35.851562 7.390625 37.496094 9.023438 37.496094 11.03125 L 37.496094 30.378906 C 37.496094 32.382812 35.851562 34.015625 33.832031 34.015625 Z M 3.664062 5.667969 C 2.980469 5.667969 2.421875 6.222656 2.421875 6.902344 L 2.421875 30.378906 C 2.421875 31.058594 2.980469 31.613281 3.664062 31.613281 L 33.832031 31.613281 C 34.519531 31.613281 35.078125 31.058594 35.078125 30.378906 L 35.078125 11.03125 C 35.078125 10.347656 34.519531 9.792969 33.832031 9.792969 L 13.699219 9.792969 C 12.753906 9.792969 11.910156 9.234375 11.550781 8.363281 L 10.75 6.429688 C 10.554688 5.964844 10.101562 5.664062 9.597656 5.664062 L 3.664062 5.664062 Z M 3.664062 5.667969 " fill-opacity="1" fill-rule="nonzero"/></g></svg>