<svg xmlns="http://www.w3.org/2000/svg" xmlns:xlink="http://www.w3.org/1999/xlink" width="50" zoomAndPan="magnify" viewBox="0 0 37.5 37.499999" height="50" preserveAspectRatio="xMidYMid meet" version="1.0"><defs><clipPath id="da8c73d941"><path d="M 0 0 L 37.007812 0 L 37.007812 37.007812 L 0 37.007812 Z M 0 0 " clip-rule="nonzero"/></clipPath></defs><g clip-path="url(#da8c73d941)"><path fill="#000000" d="M 18.75 0.00390625 C 8.410156 0.00390625 0 8.382812 0 18.683594 C 0 28.980469 8.410156 37.363281 18.75 37.363281 C 29.089844 37.363281 37.5 28.980469 37.5 18.683594 C 37.5 8.382812 29.089844 0.00390625 18.75 0.00390625 Z M 7.566406 32.132812 C 7.625 26.035156 12.617188 21.09375 18.75 21.09375 C 24.882812 21.09375 29.875 26.035156 29.933594 32.132812 C 29.15625 32.777344 28.324219 33.351562 27.445312 33.851562 C 26.566406 34.355469 25.648438 34.777344 24.695312 35.121094 C 23.742188 35.464844 22.765625 35.722656 21.769531 35.894531 C 20.769531 36.070312 19.761719 36.15625 18.75 36.15625 C 17.738281 36.15625 16.730469 36.070312 15.730469 35.894531 C 14.734375 35.722656 13.757812 35.464844 12.804688 35.121094 C 11.851562 34.777344 10.933594 34.355469 10.054688 33.851562 C 9.175781 33.351562 8.34375 32.777344 7.566406 32.132812 Z M 31.089844 31.085938 C 30.605469 25.902344 26.894531 21.652344 21.980469 20.328125 C 22.464844 20.085938 22.917969 19.796875 23.339844 19.453125 C 23.761719 19.113281 24.136719 18.726562 24.472656 18.300781 C 24.804688 17.875 25.085938 17.417969 25.316406 16.929688 C 25.550781 16.4375 25.722656 15.929688 25.839844 15.402344 C 25.957031 14.875 26.011719 14.339844 26.007812 13.800781 C 26.003906 13.257812 25.941406 12.726562 25.816406 12.199219 C 25.691406 11.671875 25.511719 11.167969 25.273438 10.679688 C 25.035156 10.195312 24.746094 9.742188 24.40625 9.320312 C 24.066406 8.898438 23.683594 8.519531 23.257812 8.183594 C 22.832031 7.847656 22.375 7.566406 21.886719 7.332031 C 21.394531 7.097656 20.886719 6.921875 20.359375 6.800781 C 19.828125 6.679688 19.292969 6.621094 18.75 6.621094 C 18.207031 6.621094 17.671875 6.679688 17.140625 6.800781 C 16.613281 6.921875 16.105469 7.097656 15.613281 7.332031 C 15.125 7.566406 14.667969 7.847656 14.242188 8.183594 C 13.816406 8.519531 13.433594 8.898438 13.09375 9.320312 C 12.753906 9.742188 12.464844 10.195312 12.226562 10.679688 C 11.988281 11.167969 11.808594 11.671875 11.683594 12.199219 C 11.558594 12.726562 11.496094 13.257812 11.492188 13.800781 C 11.488281 14.339844 11.542969 14.875 11.660156 15.402344 C 11.777344 15.929688 11.949219 16.4375 12.179688 16.929688 C 12.414062 17.417969 12.695312 17.875 13.027344 18.300781 C 13.363281 18.726562 13.738281 19.113281 14.160156 19.453125 C 14.582031 19.796875 15.035156 20.085938 15.519531 20.328125 C 10.605469 21.652344 6.894531 25.902344 6.410156 31.085938 C 4.746094 29.449219 3.460938 27.554688 2.558594 25.402344 C 1.660156 23.253906 1.207031 21.011719 1.210938 18.683594 C 1.210938 9.046875 9.078125 1.207031 18.75 1.207031 C 28.421875 1.207031 36.289062 9.046875 36.289062 18.683594 C 36.292969 21.011719 35.839844 23.253906 34.941406 25.402344 C 34.039062 27.554688 32.753906 29.449219 31.089844 31.085938 Z M 18.75 19.886719 C 18.351562 19.886719 17.960938 19.847656 17.570312 19.773438 C 17.179688 19.695312 16.800781 19.578125 16.433594 19.429688 C 16.070312 19.277344 15.71875 19.089844 15.390625 18.871094 C 15.058594 18.652344 14.753906 18.402344 14.472656 18.121094 C 14.191406 17.84375 13.941406 17.539062 13.722656 17.210938 C 13.5 16.878906 13.3125 16.53125 13.160156 16.167969 C 13.011719 15.800781 12.894531 15.425781 12.816406 15.039062 C 12.742188 14.648438 12.703125 14.257812 12.703125 13.863281 C 12.703125 13.464844 12.742188 13.074219 12.816406 12.6875 C 12.894531 12.296875 13.011719 11.921875 13.160156 11.554688 C 13.3125 11.191406 13.5 10.84375 13.722656 10.515625 C 13.941406 10.183594 14.191406 9.878906 14.472656 9.601562 C 14.753906 9.320312 15.058594 9.070312 15.390625 8.851562 C 15.71875 8.632812 16.070312 8.445312 16.433594 8.292969 C 16.800781 8.144531 17.179688 8.027344 17.570312 7.953125 C 17.960938 7.875 18.351562 7.835938 18.75 7.835938 C 19.148438 7.835938 19.539062 7.875 19.929688 7.953125 C 20.320312 8.027344 20.699219 8.144531 21.066406 8.292969 C 21.429688 8.445312 21.78125 8.632812 22.109375 8.851562 C 22.441406 9.070312 22.746094 9.320312 23.027344 9.601562 C 23.308594 9.878906 23.558594 10.183594 23.777344 10.515625 C 24 10.84375 24.1875 11.191406 24.339844 11.554688 C 24.488281 11.921875 24.605469 12.296875 24.683594 12.6875 C 24.757812 13.074219 24.796875 13.464844 24.796875 13.863281 C 24.796875 14.257812 24.757812 14.648438 24.679688 15.035156 C 24.601562 15.425781 24.488281 15.800781 24.335938 16.167969 C 24.183594 16.53125 23.996094 16.878906 23.777344 17.207031 C 23.554688 17.535156 23.304688 17.839844 23.023438 18.121094 C 22.742188 18.398438 22.4375 18.648438 22.109375 18.871094 C 21.777344 19.089844 21.429688 19.273438 21.0625 19.425781 C 20.695312 19.578125 20.320312 19.691406 19.929688 19.769531 C 19.539062 19.847656 19.148438 19.886719 18.75 19.886719 Z M 18.75 19.886719 " fill-opacity="1" fill-rule="nonzero"/></g></svg>