<svg xmlns="http://www.w3.org/2000/svg" xmlns:xlink="http://www.w3.org/1999/xlink" width="50" zoomAndPan="magnify" viewBox="0 0 37.5 37.499999" height="50" preserveAspectRatio="xMidYMid meet" version="1.0"><defs><clipPath id="5058733ef5"><path d="M 0 5 L 37.007812 5 L 37.007812 32 L 0 32 Z M 0 5 " clip-rule="nonzero"/></clipPath><clipPath id="d117f63e8c"><path d="M -3.988281 15.824219 L 36.65625 5.246094 L 41.378906 23.390625 L 0.730469 33.96875 Z M -3.988281 15.824219 " clip-rule="nonzero"/></clipPath><clipPath id="13c6d42089"><path d="M -3.988281 15.824219 L 36.65625 5.246094 L 41.378906 23.390625 L 0.730469 33.96875 Z M -3.988281 15.824219 " clip-rule="nonzero"/></clipPath><clipPath id="18becd3190"><path d="M 0 5 L 37.007812 5 L 37.007812 34 L 0 34 Z M 0 5 " clip-rule="nonzero"/></clipPath><clipPath id="0229e50392"><path d="M -3.988281 15.824219 L 36.65625 5.246094 L 41.378906 23.390625 L 0.730469 33.96875 Z M -3.988281 15.824219 " clip-rule="nonzero"/></clipPath><clipPath id="777bf982d3"><path d="M -3.988281 15.824219 L 36.65625 5.246094 L 41.378906 23.390625 L 0.730469 33.96875 Z M -3.988281 15.824219 " clip-rule="nonzero"/></clipPath></defs><g clip-path="url(#5058733ef5)"><g clip-path="url(#d117f63e8c)"><g clip-path="url(#13c6d42089)"><path fill="#000000" d="M 36.304688 5.863281 L 28.5 8.9375 L 31.632812 10.792969 L 26.238281 20.046875 L 18.878906 13.757812 L 12.832031 25.601562 L 5.832031 20.746094 L 0.367188 30.117188 L 2.851562 31.585938 L 6.753906 24.894531 L 13.898438 29.851562 L 19.785156 18.324219 L 26.992188 24.484375 L 34.117188 12.257812 L 37.445312 14.226562 Z M 36.304688 5.863281 " fill-opacity="1" fill-rule="nonzero"/></g></g></g><g clip-path="url(#18becd3190)"><g clip-path="url(#0229e50392)"><g clip-path="url(#777bf982d3)"><path stroke-linecap="butt" transform="matrix(0.0843628, -0.0219562, 0.0220915, 0.0848824, -7.880337, 3.783176)" fill="none" stroke-linejoin="miter" d="M 484.514588 149.833409 L 388.987697 161.341198 L 418.405933 190.809999 L 331.780666 277.42328 L 268.250792 186.898743 L 166.900626 300.214154 L 103.218308 226.539362 L 15.473869 314.243738 L 38.810756 337.583562 L 101.466516 274.959003 L 166.459918 350.169436 L 265.1179 239.885233 L 327.328962 328.549992 L 441.754106 214.106723 L 473.013321 245.386291 Z M 484.514588 149.833409 " stroke="#000000" stroke-width="10" stroke-opacity="1" stroke-miterlimit="10"/></g></g></g></svg>