<svg xmlns="http://www.w3.org/2000/svg" xmlns:xlink="http://www.w3.org/1999/xlink" width="50" zoomAndPan="magnify" viewBox="0 0 37.5 37.499999" height="50" preserveAspectRatio="xMidYMid meet" version="1.0"><defs><clipPath id="90823ba8b1"><path d="M 0 0 L 37.007812 0 L 37.007812 37.007812 L 0 37.007812 Z M 0 0 " clip-rule="nonzero"/></clipPath></defs><g clip-path="url(#90823ba8b1)"><path fill="#000000" d="M 1.25 20 L 17.5 20 L 17.5 36.25 C 17.5 36.941406 18.058594 37.5 18.75 37.5 C 19.441406 37.5 20 36.941406 20 36.25 L 20 20 L 36.25 20 C 36.941406 20 37.5 19.441406 37.5 18.75 C 37.5 18.058594 36.941406 17.5 36.25 17.5 L 20 17.5 L 20 1.25 C 20 0.558594 19.441406 0 18.75 0 C 18.058594 0 17.5 0.558594 17.5 1.25 L 17.5 17.5 L 1.25 17.5 C 0.558594 17.5 0 18.058594 0 18.75 C 0 19.441406 0.558594 20 1.25 20 Z M 1.25 20 " fill-opacity="1" fill-rule="nonzero"/></g></svg>